<?xml version="1.0"?>
            <svg xmlns="http://www.w3.org/2000/svg" xmlns:xlink="http://www.w3.org/1999/xlink" class="card-img-top" xmlns:svgjs="http://svgjs.com/svgjs"
                version="1.1" width="130" height="130" x="0" y="0" viewBox="0 0 64 64" style="enable-background:new 0 0 512 512"
                xml:space="preserve" class="">
                <g>
                    <g xmlns="http://www.w3.org/2000/svg" id="Outline">
                        <path
                            d="M60,21a3,3,0,0,0-3-3H48a16.007,16.007,0,0,0-.1-1.747c-.023-.214-.066-.423-.1-.636-.053-.352-.107-.7-.183-1.049-.057-.259-.129-.513-.2-.769-.078-.286-.158-.57-.252-.849s-.191-.541-.3-.808-.208-.5-.321-.752c-.12-.265-.243-.528-.379-.786s-.279-.5-.425-.745c-.137-.23-.267-.462-.416-.685-.261-.392-.542-.77-.835-1.137-.05-.062-.092-.129-.143-.191a16.215,16.215,0,0,0-1.2-1.3c-.054-.051-.111-.1-.166-.15q-.574-.545-1.2-1.031c-.033-.025-.061-.055-.094-.08L41.1,4.84l-.014.009a15.952,15.952,0,0,0-23.4,6.033l-.017.005-.2.42c-.011.025-.019.051-.03.076q-.314.687-.561,1.406c-.022.062-.047.123-.068.185-.152.457-.28.923-.39,1.4-.021.087-.048.173-.067.26-.1.446-.166.9-.224,1.359-.013.107-.037.212-.049.32A16.27,16.27,0,0,0,16,18H7a3,3,0,0,0-3,3V56H2v3a3,3,0,0,0,3,3H59a3,3,0,0,0,3-3V56H60ZM18.071,16.6A13.859,13.859,0,0,1,19.1,12.583a6.21,6.21,0,0,1,6.269,2.458l.471.659A6.18,6.18,0,0,1,27,19.312a8.221,8.221,0,0,0,4.878,7.506h0a7.816,7.816,0,0,1,4.191,4.565c-.307.1-.616.176-.926.248-.031.007-.06.017-.091.024-.22.05-.443.087-.665.126s-.434.073-.653.1c-.166.021-.331.041-.5.056-.409.036-.82.063-1.238.063A14.015,14.015,0,0,1,18,18C18,17.528,18.025,17.061,18.071,16.6ZM32,34c.505,0,1.008-.028,1.509-.076.287-.027.566-.076.848-.117.2-.03.393-.053.588-.091.376-.07.743-.16,1.109-.256.092-.025.186-.046.278-.072.4-.113.8-.245,1.183-.388.042-.016.085-.026.128-.042l.469-.177c.04-.017.081-.029.121-.046l.221-.083-.005-.021a16.076,16.076,0,0,0,7.957-7.716l.021-.01.146-.324c.01-.021.016-.043.025-.064.077-.171.153-.343.224-.517H54V52H10V24h7.178A16.017,16.017,0,0,0,32,34ZM44.892,23.437l-1.38.689a3.085,3.085,0,0,1-2.917-.081l-.446-.254a3.095,3.095,0,0,1-.653-4.874,5.1,5.1,0,0,0,.821-6.128L39.7,11.715a3.085,3.085,0,0,1,.888-4.051l.458-.327a14.246,14.246,0,0,1,1.04.982c.086.089.167.183.25.275q.345.375.659.771.182.232.352.472c.155.212.3.429.444.65.127.2.25.4.367.6s.217.4.32.6c.115.227.229.454.331.687.089.2.166.4.244.61.092.238.186.477.265.721.072.225.13.455.191.684s.129.46.179.7c.06.284.1.573.142.862.028.19.067.376.087.569A14.238,14.238,0,0,1,46,18c0,.474-.025.942-.071,1.4A13.937,13.937,0,0,1,44.892,23.437ZM32,4a13.89,13.89,0,0,1,7.348,2.106,5.073,5.073,0,0,0-1.381,6.6l.614,1.074a3.1,3.1,0,0,1-.5,3.721,5.094,5.094,0,0,0,1.074,8.023l.446.255a5.04,5.04,0,0,0,3.623.55,14.06,14.06,0,0,1-5.292,4.331A9.822,9.822,0,0,0,32.69,24.99h0A6.22,6.22,0,0,1,29,19.312a8.166,8.166,0,0,0-1.53-4.774L27,13.878a8.2,8.2,0,0,0-6.791-3.393A13.987,13.987,0,0,1,32,4ZM6,21a1,1,0,0,1,1-1h9.139a15.741,15.741,0,0,0,.388,2H8V54H56V22H47.473c.042-.161.088-.321.125-.484.014-.062.034-.122.048-.184.093-.437.159-.883.215-1.332H57a1,1,0,0,1,1,1V56H6ZM60,59a1,1,0,0,1-1,1H5a1,1,0,0,1-1-1V58H60Z"
                            fill="#7c00c9" data-original="#000000" />
                        <path d="M28,50h8V46h4.174L32,36.463,23.826,46H28Zm4-10.463L35.826,44H34v4H30V44H28.174Z" fill="#7c00c9"
                            data-original="#000000" class="" />
                    </g>
                </g>
            </svg>